<svg xmlns="http://www.w3.org/2000/svg" viewBox="0 0 32 32" width="32" height="32">
    <defs>
        <linearGradient id="heartGradient" x1="0%" y1="0%" x2="100%" y2="100%">
            <stop offset="0%" style="stop-color:#ff6b6b;stop-opacity:1" />
            <stop offset="100%" style="stop-color:#ee5a24;stop-opacity:1" />
        </linearGradient>
        <linearGradient id="bgGradient" x1="0%" y1="0%" x2="100%" y2="100%">
            <stop offset="0%" style="stop-color:#667eea;stop-opacity:1" />
            <stop offset="100%" style="stop-color:#764ba2;stop-opacity:1" />
        </linearGradient>
    </defs>

    <!-- Background circle -->
    <circle cx="16" cy="16" r="15" fill="url(#bgGradient)" stroke="#ffffff" stroke-width="1"/>

    <!-- Broken heart shape -->
    <g transform="translate(16,16)">
        <!-- Left half of heart -->
        <path d="M-2,-4 C-6,-8 -12,-6 -12,-2 C-12,2 -2,8 -2,8 L-2,-4 Z" fill="url(#heartGradient)"/>
        <!-- Right half of heart -->
        <path d="M2,-4 C6,-8 12,-6 12,-2 C12,2 2,8 2,8 L2,-4 Z" fill="url(#heartGradient)"/>

        <!-- Crack line -->
        <line x1="0" y1="-4" x2="0" y2="8" stroke="#ffffff" stroke-width="1.5" stroke-linecap="round"/>

        <!-- Small crack details -->
        <line x1="-1" y1="-1" x2="1" y2="1" stroke="#ffffff" stroke-width="1" stroke-linecap="round"/>
        <line x1="1" y1="3" x2="-1" y2="5" stroke="#ffffff" stroke-width="1" stroke-linecap="round"/>
    </g>

    <!-- Small sparkles around the heart -->
    <circle cx="8" cy="10" r="0.8" fill="#ffffff" opacity="0.8"/>
    <circle cx="24" cy="12" r="0.6" fill="#ffffff" opacity="0.6"/>
    <circle cx="6" cy="22" r="0.5" fill="#ffffff" opacity="0.7"/>
    <circle cx="26" cy="24" r="0.7" fill="#ffffff" opacity="0.5"/>
</svg>